<svg width="184" height="34" viewBox="0 0 184 34" fill="none" xmlns="http://www.w3.org/2000/svg">
    <path d="M0.789773 5.24254V0.272726H26.9013V5.24254H16.7859V33H10.9052V5.24254H0.789773ZM38.9862 33.4794C36.5253 33.4794 34.3999 32.968 32.6102 31.9453C30.8311 30.9119 29.4621 29.4524 28.5033 27.5668C27.5445 25.6705 27.0651 23.4386 27.0651 20.8711C27.0651 18.3462 27.5445 16.1303 28.5033 14.2234C29.4727 12.3058 30.8257 10.8143 32.5622 9.74893C34.2987 8.67294 36.3389 8.13494 38.6826 8.13494C40.1954 8.13494 41.623 8.37997 42.9653 8.87003C44.3183 9.34943 45.5115 10.0952 46.5448 11.1072C47.5889 12.1193 48.4092 13.4084 49.0058 14.9744C49.6024 16.5298 49.9007 18.3835 49.9007 20.5355V22.3093H29.7817V18.4102H44.3556C44.3449 17.3022 44.1052 16.3168 43.6365 15.4538C43.1677 14.5803 42.5125 13.8931 41.6709 13.3924C40.8399 12.8917 39.8705 12.6413 38.7625 12.6413C37.58 12.6413 36.5413 12.929 35.6464 13.5043C34.7515 14.0689 34.0537 14.8146 33.553 15.7415C33.0629 16.6577 32.8126 17.6644 32.8019 18.7617V22.1655C32.8019 23.593 33.0629 24.8182 33.585 25.8409C34.107 26.853 34.8367 27.6307 35.7742 28.174C36.7117 28.7067 37.809 28.973 39.0661 28.973C39.9078 28.973 40.6695 28.8558 41.3513 28.6214C42.0331 28.3764 42.6244 28.0195 43.1251 27.5508C43.6258 27.082 44.004 26.5014 44.2597 25.8089L49.661 26.4162C49.32 27.8437 48.6702 29.0902 47.7114 30.1555C46.7632 31.2102 45.5487 32.0305 44.0679 32.6165C42.5871 33.1918 40.8932 33.4794 38.9862 33.4794ZM61.8578 33.4954C60.3024 33.4954 58.9015 33.2184 57.655 32.6644C56.4192 32.0998 55.4391 31.2688 54.7147 30.1715C54.0009 29.0742 53.644 27.7212 53.644 26.1126C53.644 24.7276 53.8997 23.5824 54.411 22.6768C54.9224 21.7713 55.6202 21.0469 56.5044 20.5036C57.3887 19.9602 58.3848 19.5501 59.4927 19.2731C60.6113 18.9854 61.7672 18.7777 62.9604 18.6499C64.3986 18.5007 65.5652 18.3675 66.46 18.2504C67.3549 18.1225 68.0048 17.9308 68.4096 17.6751C68.8251 17.4087 69.0328 16.9986 69.0328 16.4446V16.3487C69.0328 15.1449 68.676 14.2127 67.9622 13.5522C67.2484 12.8917 66.2203 12.5614 64.878 12.5614C63.4611 12.5614 62.3372 12.8704 61.5062 13.4883C60.6859 14.1062 60.1319 14.8359 59.8443 15.6776L54.443 14.9105C54.8691 13.419 55.5723 12.1726 56.5524 11.1712C57.5325 10.1591 58.731 9.4027 60.1479 8.90199C61.5648 8.39062 63.1309 8.13494 64.8461 8.13494C66.0286 8.13494 67.2058 8.27344 68.3777 8.55043C69.5495 8.82741 70.6202 9.28551 71.5897 9.92471C72.5591 10.5533 73.3368 11.4109 73.9228 12.4975C74.5194 13.5842 74.8177 14.9425 74.8177 16.5724V33H69.2566V29.6282H69.0648C68.7132 30.31 68.2179 30.9492 67.5787 31.5458C66.9501 32.1317 66.1564 32.6058 65.1976 32.968C64.2495 33.3196 63.1362 33.4954 61.8578 33.4954ZM63.3599 29.2447C64.5211 29.2447 65.5279 29.0156 66.3801 28.5575C67.2324 28.0888 67.8876 27.4709 68.3457 26.7038C68.8145 25.9368 69.0488 25.1005 69.0488 24.195V21.3026C68.8677 21.4517 68.5588 21.5902 68.122 21.718C67.6958 21.8459 67.2164 21.9577 66.6838 22.0536C66.1511 22.1495 65.6238 22.2347 65.1017 22.3093C64.5797 22.3839 64.127 22.4478 63.7434 22.5011C62.8805 22.6183 62.1081 22.81 61.4263 23.0763C60.7445 23.3427 60.2065 23.7156 59.8123 24.195C59.4181 24.6637 59.2211 25.271 59.2211 26.0167C59.2211 27.082 59.6099 27.8864 60.3876 28.4297C61.1653 28.973 62.1561 29.2447 63.3599 29.2447ZM80.6344 33V8.45454H86.1635V12.6254H86.4512C86.9625 11.2191 87.8095 10.1218 88.992 9.33345C90.1745 8.53445 91.5861 8.13494 93.2267 8.13494C94.8887 8.13494 96.2896 8.53977 97.4295 9.34943C98.5801 10.1484 99.3897 11.2404 99.8585 12.6254H100.114C100.657 11.2617 101.574 10.1751 102.863 9.36541C104.162 8.5451 105.702 8.13494 107.481 8.13494C109.74 8.13494 111.583 8.84872 113.01 10.2763C114.438 11.7038 115.151 13.7866 115.151 16.5245V33H109.351V17.4194C109.351 15.896 108.946 14.7827 108.136 14.0795C107.327 13.3658 106.336 13.0089 105.164 13.0089C103.768 13.0089 102.676 13.4457 101.888 14.3192C101.11 15.1822 100.721 16.3061 100.721 17.6911V33H95.0485V17.1797C95.0485 15.9119 94.665 14.8999 93.8979 14.1435C93.1415 13.3871 92.1507 13.0089 90.9256 13.0089C90.0946 13.0089 89.3382 13.2219 88.6564 13.6481C87.9746 14.0636 87.4313 14.6548 87.0265 15.4219C86.6216 16.1783 86.4192 17.0625 86.4192 18.0746V33H80.6344ZM121.02 33V8.45454H126.549V12.6254H126.837C127.348 11.2191 128.195 10.1218 129.378 9.33345C130.56 8.53445 131.972 8.13494 133.612 8.13494C135.274 8.13494 136.675 8.53977 137.815 9.34943C138.966 10.1484 139.775 11.2404 140.244 12.6254H140.5C141.043 11.2617 141.959 10.1751 143.248 9.36541C144.548 8.5451 146.088 8.13494 147.867 8.13494C150.125 8.13494 151.968 8.84872 153.396 10.2763C154.823 11.7038 155.537 13.7866 155.537 16.5245V33H149.736V17.4194C149.736 15.896 149.332 14.7827 148.522 14.0795C147.712 13.3658 146.722 13.0089 145.55 13.0089C144.154 13.0089 143.062 13.4457 142.274 14.3192C141.496 15.1822 141.107 16.3061 141.107 17.6911V33H135.434V17.1797C135.434 15.9119 135.051 14.8999 134.284 14.1435C133.527 13.3871 132.536 13.0089 131.311 13.0089C130.48 13.0089 129.724 13.2219 129.042 13.6481C128.36 14.0636 127.817 14.6548 127.412 15.4219C127.007 16.1783 126.805 17.0625 126.805 18.0746V33H121.02ZM172.113 33.4794C169.716 33.4794 167.638 32.9521 165.88 31.8974C164.123 30.8427 162.759 29.3672 161.789 27.4709C160.831 25.5746 160.351 23.3587 160.351 20.8232C160.351 18.2876 160.831 16.0664 161.789 14.1594C162.759 12.2525 164.123 10.7717 165.88 9.71697C167.638 8.66229 169.716 8.13494 172.113 8.13494C174.51 8.13494 176.587 8.66229 178.345 9.71697C180.103 10.7717 181.461 12.2525 182.42 14.1594C183.389 16.0664 183.874 18.2876 183.874 20.8232C183.874 23.3587 183.389 25.5746 182.42 27.4709C181.461 29.3672 180.103 30.8427 178.345 31.8974C176.587 32.9521 174.51 33.4794 172.113 33.4794ZM172.145 28.8452C173.444 28.8452 174.531 28.4883 175.404 27.7745C176.278 27.0501 176.928 26.0806 177.354 24.8661C177.791 23.6516 178.009 22.2987 178.009 20.8072C178.009 19.305 177.791 17.9467 177.354 16.7322C176.928 15.5071 176.278 14.5323 175.404 13.8079C174.531 13.0835 173.444 12.7212 172.145 12.7212C170.813 12.7212 169.705 13.0835 168.821 13.8079C167.947 14.5323 167.292 15.5071 166.855 16.7322C166.429 17.9467 166.216 19.305 166.216 20.8072C166.216 22.2987 166.429 23.6516 166.855 24.8661C167.292 26.0806 167.947 27.0501 168.821 27.7745C169.705 28.4883 170.813 28.8452 172.145 28.8452Z" fill="url(#paint0_linear_1_3)"/>
    <defs>
    <linearGradient id="paint0_linear_1_3" x1="-1" y1="17" x2="186" y2="17" gradientUnits="userSpaceOnUse">
    <stop/>
    </linearGradient>
    </defs>
    </svg>
    